<svg width="311" height="82" viewBox="0 0 311 82" fill="none" xmlns="http://www.w3.org/2000/svg">
<path fill-rule="evenodd" clip-rule="evenodd" d="M0 79.6L27.1 33.2L41.5 79.6H34.4L31.2 69H13.6L7.5 79.6H0ZM16.6 63.1H29.5C29.5 63.1 25.7 47.9 25.5 46.5C25 47.5 16.6 63.1 16.6 63.1Z" fill="#414242"/>
<path d="M109.7 79.6L116.8 33.2C116.8 33.2 141.9 65.8 142.4 66.7C142.4 65.8 147.1 34.9 147.1 34.9H153.2L146.1 81.3C146.1 81.3 120.9 48.5 120.4 47.8C120.3 49.1 115.8 79.6 115.8 79.6H109.7Z" fill="#414242"/>
<path d="M188.6 79.6L195.9 34.9H222L221 41.2H201.7L199.9 52.5H219.2L218.2 58.7H198.8L196.5 73.1H215.8L214.7 79.6H188.6Z" fill="#414242"/>
<path fill-rule="evenodd" clip-rule="evenodd" d="M63 79.6L90.1 33.2L104.6 79.6H97.4L94.2 69H76.7L70.5 79.6H63ZM79.7 63.1H92.5C92.5 63.1 88.8 47.9 88.5 46.5C88.1 47.6 79.7 63.1 79.7 63.1Z" fill="#414242"/>
<path d="M37.1 33.2H44C44 33.2 53.7 63.7 53.8 64.3C54.3 63.2 71.8 33.2 71.8 33.2H79.2L51.6 79.5L37.1 33.2Z" fill="#414242"/>
<path d="M231.7 23.3L251.2 0H225.1L205.6 23.3H231.7Z" fill="#00AEAF"/>
<path opacity="0.6" d="M251.2 0L231.7 23.3H205.6C205.6 23.3 225.1 0 251.2 0Z" fill="url(#paint0_linear_260_3)"/>
<path d="M231.7 23.3L251.2 0L255.8 25.8L236.2 49L231.7 23.3Z" fill="#198391"/>
<path opacity="0.6" d="M251.2 0L231.7 23.3L236.2 49C236.2 49 255.8 25.7 251.2 0Z" fill="url(#paint1_linear_260_3)" style="mix-blend-mode:multiply"/>
<path d="M175 54.8C174.467 54.5333 173.733 54.1333 172.8 53.6C168.933 51.4667 167.033 49.1667 167.1 46.7C167.233 44.6333 168 42.9667 169.4 41.7C170.8 40.3667 172.567 39.7 174.7 39.7C176.233 39.7 177.6 40.1 178.8 40.9C180 41.7 181.4 43.8 182.3 45.4L186.4 40.6C185.133 38.4 183.467 36.7333 181.4 35.6C179.4 34.4667 177.033 33.9 174.3 33.9C170.233 33.9 166.9 35.1333 164.3 37.6C161.7 40.1333 160.333 43.3667 160.2 47.3C160.2 48.7 160.367 50 160.7 51.2C161.1 52.4667 161.7 53.5333 162.5 54.4C163.567 55.7333 165.733 57.3333 169 59.2C169.8 59.6667 170.4 60 170.8 60.2C172.667 61.4 173.967 62.5333 174.7 63.6C175.433 64.7333 175.8 66.0667 175.8 67.6C175.667 69.8667 174.867 71.7 173.4 73.1C171.867 74.5 169.933 75.2 167.6 75.2C165.733 75.2 164.1 74.6333 162.7 73.5C161.367 72.4333 160.133 70.6667 159 68.2L154.6 73.6C155.733 75.9333 157.233 77.7333 159.1 79C161.3 80.4667 163.967 81.2 167.1 81.2C171.767 81.2 175.5 79.9667 178.3 77.5C181.1 74.9667 182.6 71.5667 182.8 67.3C182.867 64.5667 182.3 62.2333 181.1 60.3C179.967 58.4333 177.933 56.6 175 54.8Z" fill="#414242"/>
<path d="M235.3 65.6L236.5 56.3H241.7L241.5 57.6H237.7L237.5 60H241.2L241 61.3H237.3L236.7 65.6H235.3Z" fill="#414242"/>
<path d="M243.5 65.6L244.7 56.3H246.2L244.9 65.6H243.5Z" fill="#414242"/>
<path d="M248.3 65.6L249.6 55.9L254.7 61.8C254.833 62 255 62.2 255.2 62.4C255.333 62.5333 255.467 62.7 255.6 62.9C255.6 62.7 255.6 62.5 255.6 62.3C255.6 62.1 255.633 61.8333 255.7 61.5L256.4 56.3H257.8L256.5 66L251.4 60.2C251.2 59.9333 251.033 59.7 250.9 59.5C250.767 59.3 250.633 59.1333 250.5 59C250.5 59.2667 250.467 59.7 250.4 60.3C250.4 60.3667 250.4 60.4 250.4 60.4L249.7 65.6H248.3Z" fill="#414242"/>
<path fill-rule="evenodd" clip-rule="evenodd" d="M258.7 65.6L264.1 55.9L267.5 65.6H266L265.2 63.4H261.5L260.3 65.6H258.7ZM262.1 62.2H264.8L264.1 59.9C264.1 59.7667 264.067 59.6 264 59.4C263.933 59.2667 263.9 59.0333 263.9 58.7C263.767 58.9 263.667 59.1 263.6 59.3C263.533 59.5 263.433 59.7 263.3 59.9L262.1 62.2Z" fill="#414242"/>
<path d="M269.3 65.6L270.5 55.9L275.6 61.8C275.733 62 275.9 62.2 276.1 62.4C276.233 62.5333 276.367 62.7 276.5 62.9C276.5 62.7 276.5 62.5 276.5 62.3C276.5 62.1 276.533 61.8333 276.6 61.5L277.3 56.3H278.7L277.4 66L272.3 60.2C272.1 59.9333 271.933 59.7 271.8 59.5C271.667 59.3 271.533 59.1333 271.4 59C271.4 59.2667 271.367 59.7 271.3 60.3C271.3 60.3667 271.3 60.4 271.3 60.4L270.6 65.6H269.3Z" fill="#414242"/>
<path d="M288.9 56.9L288.6 58.5C288.267 58.1 287.867 57.8333 287.4 57.7C287 57.5 286.567 57.4 286.1 57.4C285.567 57.4 285.1 57.5 284.7 57.7C284.233 57.8333 283.867 58.0667 283.6 58.4C283.2 58.8 282.9 59.2333 282.7 59.7C282.5 60.2333 282.4 60.7667 282.4 61.3C282.4 62.2333 282.7 63 283.3 63.6C283.9 64.2 284.667 64.5 285.6 64.5C286.067 64.5 286.5 64.4333 286.9 64.3C287.367 64.1 287.8 63.8667 288.2 63.6L287.9 65.3C287.433 65.5 287 65.6333 286.6 65.7C286.267 65.7667 285.9 65.8 285.5 65.8C284.167 65.8 283.067 65.4 282.2 64.6C281.4 63.8 281 62.7 281 61.3C281 60.5667 281.133 59.8667 281.4 59.2C281.667 58.5333 282.033 57.9667 282.5 57.5C282.967 57.0333 283.5 56.7 284.1 56.5C284.633 56.2333 285.233 56.1 285.9 56.1C286.5 56.1 287.067 56.1667 287.6 56.3C288.067 56.4333 288.5 56.6333 288.9 56.9Z" fill="#414242"/>
<path d="M290.8 65.6L292 56.3H293.5L292.3 65.6H290.8Z" fill="#414242"/>
<path fill-rule="evenodd" clip-rule="evenodd" d="M294.5 65.6L299.9 55.9L303.3 65.6H301.8L301 63.4H297.3L296.1 65.6H294.5ZM297.9 62.2H300.6L299.9 59.9C299.833 59.7667 299.8 59.6 299.8 59.4C299.733 59.2667 299.667 59.0333 299.6 58.7C299.533 58.9 299.467 59.1 299.4 59.3C299.267 59.5 299.167 59.7 299.1 59.9L297.9 62.2Z" fill="#414242"/>
<path d="M305 65.6L306.2 56.3H307.7L306.7 64.2H310.1L309.9 65.6H305Z" fill="#414242"/>
<path d="M233 78.1L234 77.3C234.267 77.7667 234.533 78.1333 234.8 78.4C235.133 78.6 235.5 78.7 235.9 78.7C236.367 78.7 236.767 78.5667 237.1 78.3C237.367 77.9667 237.5 77.5667 237.5 77.1C237.5 76.8333 237.433 76.5667 237.3 76.3C237.1 76.1 236.8 75.8667 236.4 75.6C236.333 75.5333 236.233 75.4667 236.1 75.4C235.367 75 234.9 74.6667 234.7 74.4C234.5 74.2 234.367 74 234.3 73.8C234.167 73.5333 234.1 73.2667 234.1 73C234.1 72.1333 234.367 71.4667 234.9 71C235.433 70.4667 236.133 70.2 237 70.2C237.533 70.2 238.033 70.3 238.5 70.5C238.9 70.7667 239.233 71.1333 239.5 71.6L238.7 72.4C238.433 72.0667 238.2 71.8 238 71.6C237.733 71.4667 237.433 71.4 237.1 71.4C236.633 71.4 236.267 71.5333 236 71.8C235.733 72.0667 235.6 72.4 235.6 72.8C235.6 73.3333 236 73.8 236.8 74.2C237 74.3333 237.167 74.4333 237.3 74.5C237.9 74.8333 238.333 75.2 238.6 75.6C238.867 76 239 76.5 239 77.1C239 77.9667 238.7 78.6667 238.1 79.2C237.567 79.6667 236.8 79.9 235.8 79.9C235.133 79.9 234.567 79.7667 234.1 79.5C233.633 79.1667 233.267 78.7 233 78.1Z" fill="#414242"/>
<path d="M241.6 79.7L242.8 70.4H248L247.9 71.7H244.1L243.8 74.1H247.5L247.4 75.4H243.6L243.2 78.4H247L246.8 79.7H241.6Z" fill="#414242"/>
<path fill-rule="evenodd" clip-rule="evenodd" d="M251.4 79.7H249.9L251.1 70.4H252.8C253.533 70.4 254.067 70.4333 254.4 70.5C254.733 70.6333 255.033 70.8 255.3 71C255.567 71.2 255.767 71.4667 255.9 71.8C256.033 72.1333 256.1 72.5 256.1 72.9C256.1 73.6333 255.9 74.2667 255.5 74.8C255.1 75.2667 254.5 75.5667 253.7 75.7L256.3 79.7H254.7L252.2 75.7H251.9L251.4 79.7ZM252.1 74.6H252.3C253.233 74.6 253.867 74.4667 254.2 74.2C254.533 74 254.7 73.6 254.7 73C254.7 72.5333 254.567 72.2 254.3 72C254.033 71.8667 253.5 71.8 252.7 71.8H252.4L252.1 74.6Z" fill="#414242"/>
<path d="M258.2 70.4H259.6L261.1 76C261.167 76.2667 261.233 76.4667 261.3 76.6C261.3 76.8 261.3 76.9667 261.3 77.1C261.433 76.9 261.533 76.7 261.6 76.5C261.733 76.3 261.833 76.1 261.9 75.9L264.9 70.4H266.4L260.9 80.1L258.2 70.4Z" fill="#414242"/>
<path d="M267.3 79.7L268.5 70.4H270L268.8 79.7H267.3Z" fill="#414242"/>
<path d="M280.2 71L280 72.6C279.667 72.2 279.267 71.9333 278.8 71.8C278.4 71.6 277.933 71.5 277.4 71.5C276.933 71.5 276.467 71.6 276 71.8C275.6 71.9333 275.233 72.1667 274.9 72.5C274.567 72.9 274.3 73.3333 274.1 73.8C273.9 74.3333 273.8 74.8667 273.8 75.4C273.8 76.3333 274.1 77.1 274.7 77.7C275.3 78.3 276.067 78.6 277 78.6C277.467 78.6 277.9 78.5333 278.3 78.4C278.7 78.2 279.133 77.9667 279.6 77.7L279.2 79.4C278.8 79.6 278.4 79.7333 278 79.8C277.6 79.8667 277.233 79.9 276.9 79.9C275.567 79.9 274.467 79.5 273.6 78.7C272.8 77.9 272.4 76.8 272.4 75.4C272.4 74.6667 272.533 73.9667 272.8 73.3C273.067 72.6333 273.433 72.0667 273.9 71.6C274.367 71.1333 274.867 70.8 275.4 70.6C276 70.3333 276.633 70.2 277.3 70.2C277.9 70.2 278.433 70.2667 278.9 70.4C279.433 70.5333 279.867 70.7333 280.2 71Z" fill="#414242"/>
<path d="M282.2 79.7L283.4 70.4H288.6L288.4 71.7H284.7L284.4 74.1H288.1L287.9 75.4H284.2L283.8 78.4H287.6L287.4 79.7H282.2Z" fill="#414242"/>
<path d="M289.9 78.1L291 77.3C291.2 77.7667 291.467 78.1333 291.8 78.4C292.067 78.6 292.4 78.7 292.8 78.7C293.267 78.7 293.667 78.5667 294 78.3C294.267 77.9667 294.4 77.5667 294.4 77.1C294.4 76.8333 294.333 76.5667 294.2 76.3C294.067 76.1 293.8 75.8667 293.4 75.6C293.267 75.5333 293.133 75.4667 293 75.4C292.267 75 291.8 74.6667 291.6 74.4C291.4 74.2 291.267 74 291.2 73.8C291.133 73.5333 291.1 73.2667 291.1 73C291.1 72.1333 291.333 71.4667 291.8 71C292.333 70.4667 293.033 70.2 293.9 70.2C294.5 70.2 295 70.3 295.4 70.5C295.8 70.7667 296.167 71.1333 296.5 71.6L295.6 72.4C295.4 72.0667 295.167 71.8 294.9 71.6C294.633 71.4667 294.333 71.4 294 71.4C293.533 71.4 293.167 71.5333 292.9 71.8C292.633 72.0667 292.5 72.4 292.5 72.8C292.5 73.3333 292.9 73.8 293.7 74.2C293.9 74.3333 294.067 74.4333 294.2 74.5C294.8 74.8333 295.233 75.2 295.5 75.6C295.767 76 295.9 76.5 295.9 77.1C295.9 77.9667 295.633 78.6667 295.1 79.2C294.5 79.6667 293.7 79.9 292.7 79.9C292.1 79.9 291.567 79.7667 291.1 79.5C290.633 79.1667 290.233 78.7 289.9 78.1Z" fill="#414242"/>
<defs>
<linearGradient id="paint0_linear_260_3" x1="271.585" y1="12.822" x2="255.411" y2="-21.7598" gradientUnits="userSpaceOnUse">
<stop stop-color="white"/>
<stop offset="1" stop-color="white"/>
</linearGradient>
<linearGradient id="paint1_linear_260_3" x1="235.078" y1="-17.788" x2="271.948" y2="-7.86134" gradientUnits="userSpaceOnUse">
<stop stop-color="white"/>
<stop offset="1" stop-color="#221F1F"/>
</linearGradient>
</defs>
</svg>
