<svg xmlns="http://www.w3.org/2000/svg" xmlns:xlink="http://www.w3.org/1999/xlink" viewBox="0 0 72 17">
  <path d="M 16.17 7.416 L 9.029 0.348 C 8.8 0.122 8.498 0.012 8.171 0 C 7.847 0 7.544 0.128 7.318 0.357 L 0.406 7.361 C 0.144 7.63 0 7.984 0 8.363 C 0 8.742 0.15 9.096 0.419 9.362 L 7.41 16.283 C 7.639 16.509 7.938 16.631 8.259 16.631 L 8.268 16.631 C 8.592 16.631 8.895 16.503 9.121 16.274 L 16.179 9.13 C 16.405 8.902 16.531 8.593 16.528 8.271 C 16.528 7.948 16.399 7.645 16.17 7.419 Z M 14.407 8.281 L 8.256 14.511 L 2.032 8.351 L 8.186 2.121 Z M 26.259 13.729 C 25.517 13.729 24.857 13.597 24.276 13.334 C 23.711 13.072 23.231 12.711 22.84 12.25 C 22.446 11.771 22.144 11.223 21.951 10.633 C 21.749 10.028 21.649 9.384 21.649 8.702 C 21.649 8.021 21.749 7.394 21.951 6.789 C 22.153 6.184 22.449 5.653 22.84 5.191 C 23.231 4.718 23.711 4.351 24.276 4.088 C 24.857 3.826 25.517 3.694 26.259 3.694 C 27.204 3.694 28.026 3.917 28.728 4.363 C 29.443 4.809 29.969 5.494 30.308 6.414 L 28.789 6.985 C 28.6 6.432 28.297 5.986 27.879 5.644 C 27.46 5.301 26.919 5.13 26.259 5.13 C 25.599 5.13 25.052 5.301 24.619 5.644 C 24.188 5.986 23.864 6.426 23.647 6.964 C 23.445 7.501 23.344 8.082 23.344 8.699 C 23.344 9.316 23.445 9.903 23.647 10.453 C 23.864 10.991 24.188 11.434 24.619 11.773 C 25.049 12.103 25.596 12.265 26.259 12.265 C 26.922 12.265 27.46 12.1 27.879 11.773 C 28.297 11.431 28.6 10.979 28.789 10.413 L 30.308 10.985 C 29.972 11.904 29.443 12.595 28.728 13.056 C 28.026 13.502 27.204 13.726 26.259 13.726 Z M 39.142 13.57 L 39.019 11.617 L 39.019 7.477 C 39.019 6.728 38.803 6.151 38.372 5.741 C 37.953 5.335 37.327 5.13 36.489 5.13 C 35.949 5.13 35.444 5.243 34.971 5.466 C 34.497 5.677 34.039 6.038 33.596 6.551 L 32.361 5.524 C 32.914 4.895 33.55 4.434 34.265 4.143 C 34.98 3.841 35.762 3.691 36.612 3.691 C 37.919 3.691 38.934 4.021 39.649 4.678 C 40.364 5.335 40.721 6.27 40.721 7.477 L 40.721 13.57 Z M 35.845 13.729 C 35.09 13.729 34.427 13.603 33.862 13.353 C 33.309 13.09 32.878 12.729 32.566 12.268 C 32.27 11.807 32.12 11.275 32.12 10.67 C 32.12 10.132 32.227 9.677 32.444 9.31 C 32.673 8.928 32.963 8.632 33.315 8.424 C 33.666 8.201 34.063 8.048 34.509 7.972 C 34.968 7.88 35.447 7.834 35.946 7.834 L 39.184 7.834 L 39.184 9.096 L 36.19 9.096 C 35.894 9.096 35.582 9.124 35.258 9.176 C 34.934 9.228 34.65 9.341 34.409 9.512 C 34.234 9.643 34.091 9.808 33.984 10.004 C 33.889 10.203 33.843 10.432 33.843 10.694 C 33.843 11.208 34.039 11.614 34.43 11.917 C 34.821 12.219 35.347 12.369 36.01 12.369 C 36.563 12.369 37.061 12.244 37.507 11.993 C 37.965 11.743 38.329 11.4 38.601 10.966 C 38.885 10.52 39.026 10.019 39.026 9.469 L 39.734 10.178 C 39.655 10.875 39.438 11.492 39.087 12.033 C 38.735 12.571 38.283 12.992 37.73 13.295 C 37.189 13.585 36.563 13.729 35.848 13.729 Z M 43.514 13.57 L 43.514 3.85 L 45.234 3.85 L 45.234 5.922 L 44.831 6.059 C 45.021 5.561 45.277 5.139 45.601 4.797 C 45.925 4.443 46.316 4.174 46.774 3.987 C 47.233 3.789 47.74 3.691 48.293 3.691 C 49.387 3.691 50.243 4.006 50.863 4.638 C 51.483 5.256 51.795 6.175 51.795 7.397 L 51.795 13.57 L 50.074 13.57 L 50.074 8.009 C 50.074 7.022 49.885 6.301 49.509 5.839 C 49.146 5.366 48.586 5.13 47.829 5.13 C 47.276 5.13 46.802 5.256 46.411 5.506 C 46.032 5.757 45.742 6.151 45.54 6.689 C 45.338 7.214 45.238 7.892 45.238 8.721 L 45.238 13.57 L 43.517 13.57 Z M 57.423 13.57 L 53.335 3.85 L 55.217 3.85 L 58.132 11.422 L 61.065 3.85 L 62.926 3.85 L 58.859 13.57 Z M 68.041 13.729 C 67.366 13.729 66.758 13.631 66.22 13.432 C 65.679 13.234 65.215 12.971 64.824 12.644 C 64.445 12.314 64.142 11.966 63.913 11.599 L 65.108 10.612 C 65.364 11.11 65.743 11.526 66.241 11.856 C 66.755 12.17 67.36 12.329 68.062 12.329 C 68.698 12.329 69.202 12.198 69.581 11.935 C 69.96 11.672 70.149 11.318 70.149 10.872 C 70.149 10.505 70.033 10.215 69.804 10.004 C 69.575 9.793 69.272 9.622 68.894 9.491 C 68.515 9.359 68.105 9.24 67.659 9.136 C 67.28 9.044 66.898 8.931 66.504 8.8 C 66.125 8.669 65.783 8.504 65.471 8.308 C 65.164 8.115 64.908 7.851 64.723 7.538 C 64.533 7.223 64.439 6.835 64.439 6.374 C 64.439 5.573 64.756 4.929 65.389 4.443 C 66.037 3.945 66.88 3.694 67.919 3.694 C 68.674 3.694 69.361 3.853 69.984 4.168 C 70.62 4.47 71.112 4.932 71.463 5.549 L 70.369 6.337 C 70.101 5.876 69.743 5.549 69.297 5.35 C 68.866 5.139 68.386 5.036 67.861 5.036 C 67.335 5.036 66.895 5.139 66.544 5.35 C 66.192 5.561 66.018 5.848 66.018 6.218 C 66.018 6.493 66.098 6.716 66.263 6.887 C 66.425 7.058 66.66 7.202 66.972 7.321 C 67.296 7.44 67.687 7.55 68.145 7.657 C 68.564 7.749 68.988 7.862 69.419 7.993 C 69.85 8.125 70.25 8.296 70.614 8.507 C 70.977 8.717 71.268 8.999 71.485 9.353 C 71.714 9.695 71.83 10.141 71.83 10.694 C 71.83 11.299 71.674 11.831 71.366 12.292 C 71.054 12.754 70.617 13.108 70.052 13.356 C 69.486 13.606 68.817 13.732 68.047 13.732 Z" fill="rgb(24, 24, 24)"/>
</svg>
