<svg width="184" height="184" viewBox="0 0 184 184" fill="none" xmlns="http://www.w3.org/2000/svg">
<path fill-rule="evenodd" clip-rule="evenodd" d="M92 0C74.327 0 60 14.327 60 32V40H24C17.373 40 12 45.373 12 52V160C12 173.807 23.193 185 37 185H147C160.807 185 172 173.807 172 160V52C172 45.373 166.627 40 160 40H124V32C124 14.327 109.673 0 92 0ZM108 40V32C108 23.163 100.837 16 92 16C83.163 16 76 23.163 76 32V40H108ZM28 56H60V64C60 68.418 63.582 72 68 72C72.418 72 76 68.418 76 64V56H108V64C108 68.418 111.582 72 116 72C120.418 72 124 68.418 124 64V56H156V160C156 164.418 152.418 168 148 168H36C31.582 168 28 164.418 28 160V56Z" fill="#5A2A27"/>
</svg>
