<?xml version="1.0" encoding="utf-8"?>
<!-- Generator: Adobe Illustrator 27.8.0, SVG Export Plug-In . SVG Version: 6.00 Build 0)  -->
<svg version="1.1" id="Layer_1" xmlns="http://www.w3.org/2000/svg" xmlns:xlink="http://www.w3.org/1999/xlink" x="0px" y="0px" width="64" height="32"
	 viewBox="0 0 64 32" enable-background="new 0 0 64 32" xml:space="preserve">
<g>
	<g>
		<path fill="#929497" d="M30.72,23.56c0-0.17,0.13-0.3,0.3-0.3h1.97c0.15,0,0.27,0.12,0.27,0.27s-0.12,0.27-0.27,0.27h-1.67v0.92
			h1.45c0.15,0,0.27,0.12,0.27,0.27c0,0.15-0.12,0.27-0.27,0.27h-1.45v1.1c0,0.16-0.13,0.29-0.29,0.29c-0.17,0-0.3-0.13-0.3-0.29
			V23.56z"/>
		<path fill="#929497" d="M34.78,23.53c0-0.16,0.13-0.29,0.3-0.29c0.16,0,0.29,0.13,0.29,0.29v2.83c0,0.16-0.13,0.29-0.29,0.29
			c-0.17,0-0.3-0.13-0.3-0.29V23.53z"/>
		<path fill="#929497" d="M37.14,23.54c0-0.16,0.13-0.3,0.3-0.3h0.06c0.14,0,0.23,0.07,0.31,0.17l1.69,2.18v-2.07
			c0-0.16,0.13-0.29,0.29-0.29c0.16,0,0.29,0.13,0.29,0.29v2.83c0,0.16-0.13,0.29-0.29,0.29h-0.02c-0.14,0-0.23-0.07-0.31-0.18
			l-1.73-2.24v2.14c0,0.16-0.13,0.29-0.29,0.29c-0.16,0-0.29-0.13-0.29-0.29V23.54z"/>
		<path fill="#929497" d="M41.62,26.25l1.25-2.79c0.07-0.15,0.19-0.24,0.36-0.24h0.03c0.17,0,0.28,0.09,0.35,0.24l1.25,2.79
			c0.02,0.04,0.03,0.09,0.03,0.13c0,0.16-0.12,0.28-0.28,0.28c-0.14,0-0.24-0.08-0.29-0.21l-0.27-0.63h-1.64l-0.28,0.65
			c-0.05,0.12-0.15,0.19-0.27,0.19c-0.15,0-0.27-0.12-0.27-0.27C41.58,26.34,41.6,26.3,41.62,26.25z M43.83,25.3l-0.59-1.36
			l-0.59,1.36H43.83z"/>
		<path fill="#929497" d="M46.4,23.54c0-0.16,0.13-0.3,0.3-0.3h0.06c0.14,0,0.23,0.07,0.31,0.17l1.69,2.18v-2.07
			c0-0.16,0.13-0.29,0.29-0.29c0.16,0,0.29,0.13,0.29,0.29v2.83c0,0.16-0.13,0.29-0.29,0.29h-0.02c-0.14,0-0.23-0.07-0.31-0.18
			l-1.73-2.24v2.14c0,0.16-0.13,0.29-0.29,0.29c-0.16,0-0.29-0.13-0.29-0.29V23.54z"/>
		<path fill="#929497" d="M50.93,24.96L50.93,24.96c0-0.97,0.72-1.75,1.74-1.75c0.52,0,0.86,0.15,1.16,0.38
			c0.06,0.05,0.12,0.13,0.12,0.24c0,0.16-0.13,0.29-0.29,0.29c-0.08,0-0.14-0.03-0.18-0.06c-0.23-0.19-0.48-0.3-0.8-0.3
			c-0.64,0-1.11,0.53-1.11,1.19v0.01c0,0.66,0.47,1.19,1.11,1.19c0.36,0,0.6-0.12,0.84-0.32c0.04-0.04,0.11-0.07,0.18-0.07
			c0.15,0,0.28,0.13,0.28,0.27c0,0.09-0.04,0.16-0.1,0.21c-0.32,0.28-0.68,0.45-1.22,0.45C51.66,26.69,50.93,25.93,50.93,24.96z"/>
		<path fill="#929497" d="M55.5,26.34v-2.77c0-0.17,0.13-0.3,0.3-0.3h1.96c0.14,0,0.26,0.12,0.26,0.26c0,0.15-0.12,0.26-0.26,0.26
			h-1.67v0.88h1.45c0.14,0,0.26,0.12,0.26,0.27c0,0.14-0.12,0.26-0.26,0.26h-1.45v0.91h1.69c0.14,0,0.26,0.12,0.26,0.26
			c0,0.15-0.12,0.26-0.26,0.26H55.8C55.63,26.64,55.5,26.51,55.5,26.34z"/>
	</g>
	<g>
		<path fill="#223F99" d="M27.67,13.46c-0.47,0-0.9,0.07-1.29,0.22v-2.2h-1.85v5.16v4.1h1.84h0.01v-4.29
			c0.01-0.18,0.02-0.32,0.04-0.42c0.03-0.17,0.1-0.33,0.21-0.48c0.22-0.31,0.56-0.47,1.02-0.47c0.59,0,1.08,0.38,1.19,0.91
			c0.03,0.14,0.05,0.44,0.05,0.9v3.84h1.85v-4.1c0-1.2-0.18-1.83-0.71-2.35C29.46,13.74,28.68,13.46,27.67,13.46z"/>
		<path fill="#223F99" d="M47.24,13.46c-0.7,0-1.31,0.16-1.85,0.49c-0.12,0.07-0.23,0.16-0.34,0.24c-0.55-0.49-1.29-0.73-2.24-0.73
			c-0.7,0-1.31,0.16-1.85,0.49c-0.54,0.33-0.9,0.76-1.1,1.3c-0.12,0.33-0.19,0.8-0.19,1.39v4.1h1.84V16.9c0-0.4,0.02-0.69,0.05-0.87
			c0.03-0.17,0.1-0.33,0.21-0.48c0.22-0.31,0.56-0.47,1.02-0.47c0.59,0,1.08,0.38,1.19,0.91c0.03,0.14,0.05,0.44,0.05,0.9v3.84h0.08
			h1.76h0.07V16.9c0-0.4,0.02-0.69,0.05-0.87c0.03-0.17,0.1-0.33,0.21-0.48c0.22-0.31,0.56-0.47,1.02-0.47
			c0.59,0,1.08,0.38,1.19,0.91c0.03,0.14,0.05,0.44,0.05,0.9v3.84h1.85v-4.1c0-1.2-0.18-1.83-0.71-2.35
			C49.02,13.74,48.24,13.46,47.24,13.46z"/>
		<path fill="#223F99" d="M21.58,17.3c0,0.4-0.02,0.69-0.05,0.87c-0.03,0.17-0.1,0.33-0.21,0.48c-0.22,0.31-0.56,0.47-1.02,0.47
			c-0.59,0-1.08-0.38-1.19-0.91c-0.03-0.14-0.05-0.44-0.05-0.9v-3.84h-1.85v4.1c0,1.2,0.18,1.83,0.71,2.35
			c0.56,0.56,1.34,0.83,2.34,0.83c0.7,0,1.31-0.16,1.85-0.49c0.54-0.33,0.9-0.76,1.1-1.3c0.12-0.33,0.19-0.8,0.19-1.39v-4.1h-1.84
			V17.3z"/>
		<path fill="#223F99" d="M35.2,13.46c-2.01,0-3.64,1.63-3.64,3.64c0,2.01,1.63,3.64,3.64,3.64c2.01,0,3.64-1.63,3.64-3.64
			C38.84,15.09,37.21,13.46,35.2,13.46z M35.2,18.9c-0.99,0-1.8-0.81-1.8-1.8c0-0.99,0.81-1.8,1.8-1.8c0.99,0,1.8,0.81,1.8,1.8
			C37,18.1,36.19,18.9,35.2,18.9z"/>
		<polygon fill="#223F99" points="12.94,11.48 10.23,11.48 8.39,11.48 5.67,11.48 5.67,13.16 8.39,13.16 8.39,20.74 10.23,20.74 
			10.23,13.16 12.94,13.16 		"/>
		<path fill="#223F99" d="M13.6,13.95c-0.54,0.33-0.9,0.76-1.1,1.3c-0.12,0.33-0.19,0.8-0.19,1.39v4.1h1.84v-3.78
			c0-0.4,0.02-0.69,0.05-0.87c0.03-0.17,0.1-0.33,0.21-0.48c0.21-0.31,0.55-0.47,1-0.47h1v-1.68h-1
			C14.72,13.47,14.12,13.63,13.6,13.95z"/>
		<path fill="#223F99" d="M52.92,17.14L52.92,17.14c0-1.12,0.9-2.02,2.02-2.02h1.06c0.4,0.03,0.71,0.33,0.71,0.7
			c0,0.39-0.35,0.75-0.78,0.75v0h-1.48v1.49h1.64v-0.01c1.25-0.07,2.24-1,2.24-2.23c0-1.28-1.26-2.33-2.58-2.33v0h-0.81
			c-2.01,0-3.64,1.63-3.64,3.64v0c0,1.97,1.6,3.57,3.57,3.57h3.16v-1.62h-3.16C53.79,19.09,52.92,18.21,52.92,17.14z"/>
	</g>
	<g>
		<polygon fill="#F37920" points="26.36,8.97 24.74,8.97 24.74,2.26 10.01,2.26 10.01,8.97 8.39,8.97 8.39,0.64 26.36,0.64 		"/>
	</g>
	<g>
		<polygon fill="#F37920" points="26.36,31.36 8.39,31.36 8.39,23.25 10.01,23.25 10.01,29.74 24.74,29.74 24.74,23.25 26.36,23.25 
					"/>
	</g>
</g>
</svg>
