<svg width="184" height="184" viewBox="0 0 184 184" fill="none" xmlns="http://www.w3.org/2000/svg">
<path fill-rule="evenodd" clip-rule="evenodd" d="M25 8C19.477 8 15 12.477 15 18V112C15 117.523 19.477 122 25 122H86V152H48C43.582 152 40 155.582 40 160C40 164.418 43.582 168 48 168H136C140.418 168 144 164.418 144 160C144 155.582 140.418 152 136 152H98V122H159C164.523 122 169 117.523 169 112V18C169 12.477 164.523 8 159 8H25ZM28 22H156V108H28V22ZM42 38H142V46H42V38ZM42 58H142V66H42V58ZM42 78H115V86H42V78Z" fill="#5A2A27"/>
</svg>
